<mxfile host="app.diagrams.net" modified="2024-05-24T14:32:29.777Z" agent="Mozilla/5.0 (Windows NT 10.0; Win64; x64) AppleWebKit/537.36 (KHTML, like Gecko) Chrome/125.0.0.0 Safari/537.36" etag="-__Q4_TMXliReKmToBim" version="24.4.8" type="device">
  <diagram name="Страница — 1" id="yD05dwCrK1hSW_0WhyK5">
    <mxGraphModel dx="1292" dy="811" grid="1" gridSize="10" guides="1" tooltips="1" connect="1" arrows="1" fold="1" page="1" pageScale="1" pageWidth="827" pageHeight="1169" math="0" shadow="0">
      <root>
        <mxCell id="0" />
        <mxCell id="1" parent="0" />
        <mxCell id="dv9X8ovjfFe85xrB6MPp-1" value="" style="swimlane;startSize=0;fillColor=default;" parent="1" vertex="1">
          <mxGeometry x="160" y="78" width="680" height="160" as="geometry" />
        </mxCell>
        <mxCell id="dv9X8ovjfFe85xrB6MPp-9" value="Управление тендерами" style="rounded=0;whiteSpace=wrap;html=1;" parent="dv9X8ovjfFe85xrB6MPp-1" vertex="1">
          <mxGeometry x="360" y="20" width="120" height="60" as="geometry" />
        </mxCell>
        <mxCell id="665O-ssnFFVVTjVJuoYP-6" value="Управление персоналом" style="rounded=0;whiteSpace=wrap;html=1;" vertex="1" parent="dv9X8ovjfFe85xrB6MPp-1">
          <mxGeometry x="50" y="22" width="120" height="60" as="geometry" />
        </mxCell>
        <mxCell id="dv9X8ovjfFe85xrB6MPp-16" value="Финансовое управление" style="rounded=0;whiteSpace=wrap;html=1;" parent="dv9X8ovjfFe85xrB6MPp-1" vertex="1">
          <mxGeometry x="200" y="22" width="120" height="60" as="geometry" />
        </mxCell>
        <mxCell id="dv9X8ovjfFe85xrB6MPp-15" value="Стратегическое управление" style="rounded=0;whiteSpace=wrap;html=1;" parent="dv9X8ovjfFe85xrB6MPp-1" vertex="1">
          <mxGeometry x="520" y="22" width="120" height="60" as="geometry" />
        </mxCell>
        <mxCell id="dv9X8ovjfFe85xrB6MPp-2" value="" style="swimlane;startSize=0;" parent="1" vertex="1">
          <mxGeometry x="160" y="270" width="680" height="230" as="geometry" />
        </mxCell>
        <mxCell id="dv9X8ovjfFe85xrB6MPp-12" value="процесс андреррайтинга" style="rounded=0;whiteSpace=wrap;html=1;" parent="dv9X8ovjfFe85xrB6MPp-2" vertex="1">
          <mxGeometry x="320" y="20" width="120" height="60" as="geometry" />
        </mxCell>
        <mxCell id="dv9X8ovjfFe85xrB6MPp-7" value="Розничная продажа страхования" style="rounded=0;whiteSpace=wrap;html=1;" parent="dv9X8ovjfFe85xrB6MPp-2" vertex="1">
          <mxGeometry x="40" y="20" width="120" height="60" as="geometry" />
        </mxCell>
        <mxCell id="dv9X8ovjfFe85xrB6MPp-8" value="Предоставление ДМС компаниям" style="rounded=0;whiteSpace=wrap;html=1;" parent="dv9X8ovjfFe85xrB6MPp-2" vertex="1">
          <mxGeometry x="180" y="20" width="120" height="60" as="geometry" />
        </mxCell>
        <mxCell id="dv9X8ovjfFe85xrB6MPp-14" value="Прогнозирование возможного ущерба" style="rounded=0;whiteSpace=wrap;html=1;" parent="dv9X8ovjfFe85xrB6MPp-2" vertex="1">
          <mxGeometry x="120" y="150" width="120" height="60" as="geometry" />
        </mxCell>
        <mxCell id="665O-ssnFFVVTjVJuoYP-9" value="Принятие решения о заключении сделки" style="rounded=0;whiteSpace=wrap;html=1;" vertex="1" parent="dv9X8ovjfFe85xrB6MPp-2">
          <mxGeometry x="280" y="150" width="120" height="60" as="geometry" />
        </mxCell>
        <mxCell id="665O-ssnFFVVTjVJuoYP-10" value="Принятие решения о заключении сделки" style="rounded=0;whiteSpace=wrap;html=1;" vertex="1" parent="dv9X8ovjfFe85xrB6MPp-2">
          <mxGeometry x="440" y="150" width="120" height="60" as="geometry" />
        </mxCell>
        <mxCell id="665O-ssnFFVVTjVJuoYP-11" value="" style="endArrow=classic;html=1;rounded=0;exitX=0.5;exitY=1;exitDx=0;exitDy=0;entryX=0.5;entryY=0;entryDx=0;entryDy=0;" edge="1" parent="dv9X8ovjfFe85xrB6MPp-2" source="dv9X8ovjfFe85xrB6MPp-12" target="dv9X8ovjfFe85xrB6MPp-14">
          <mxGeometry width="50" height="50" relative="1" as="geometry">
            <mxPoint x="390" y="130" as="sourcePoint" />
            <mxPoint x="440" y="80" as="targetPoint" />
            <Array as="points">
              <mxPoint x="380" y="110" />
              <mxPoint x="180" y="110" />
            </Array>
          </mxGeometry>
        </mxCell>
        <mxCell id="665O-ssnFFVVTjVJuoYP-12" value="" style="endArrow=classic;html=1;rounded=0;entryX=0.5;entryY=0;entryDx=0;entryDy=0;" edge="1" parent="dv9X8ovjfFe85xrB6MPp-2" target="665O-ssnFFVVTjVJuoYP-9">
          <mxGeometry width="50" height="50" relative="1" as="geometry">
            <mxPoint x="380" y="80" as="sourcePoint" />
            <mxPoint x="470" y="90" as="targetPoint" />
            <Array as="points">
              <mxPoint x="380" y="110" />
              <mxPoint x="340" y="110" />
            </Array>
          </mxGeometry>
        </mxCell>
        <mxCell id="665O-ssnFFVVTjVJuoYP-13" value="" style="endArrow=classic;html=1;rounded=0;exitX=0.5;exitY=1;exitDx=0;exitDy=0;entryX=0.5;entryY=0;entryDx=0;entryDy=0;" edge="1" parent="dv9X8ovjfFe85xrB6MPp-2" source="dv9X8ovjfFe85xrB6MPp-12" target="665O-ssnFFVVTjVJuoYP-10">
          <mxGeometry width="50" height="50" relative="1" as="geometry">
            <mxPoint x="450" y="190" as="sourcePoint" />
            <mxPoint x="500" y="140" as="targetPoint" />
            <Array as="points">
              <mxPoint x="380" y="110" />
              <mxPoint x="500" y="110" />
            </Array>
          </mxGeometry>
        </mxCell>
        <mxCell id="dv9X8ovjfFe85xrB6MPp-3" value="" style="swimlane;startSize=0;" parent="1" vertex="1">
          <mxGeometry x="160" y="540" width="680" height="160" as="geometry" />
        </mxCell>
        <mxCell id="dv9X8ovjfFe85xrB6MPp-10" value="Обеспечение безопасности&amp;nbsp;" style="rounded=0;whiteSpace=wrap;html=1;" parent="dv9X8ovjfFe85xrB6MPp-3" vertex="1">
          <mxGeometry x="30" y="40" width="120" height="60" as="geometry" />
        </mxCell>
        <mxCell id="dv9X8ovjfFe85xrB6MPp-11" value="Юридическое обеспечение" style="rounded=0;whiteSpace=wrap;html=1;" parent="dv9X8ovjfFe85xrB6MPp-3" vertex="1">
          <mxGeometry x="180" y="40" width="120" height="60" as="geometry" />
        </mxCell>
        <mxCell id="665O-ssnFFVVTjVJuoYP-7" value="IT-обеспечение и связь" style="rounded=0;whiteSpace=wrap;html=1;" vertex="1" parent="dv9X8ovjfFe85xrB6MPp-3">
          <mxGeometry x="340" y="40" width="120" height="60" as="geometry" />
        </mxCell>
        <mxCell id="665O-ssnFFVVTjVJuoYP-8" value="Административно-хозяйственное обеспечение&amp;nbsp;" style="rounded=0;whiteSpace=wrap;html=1;" vertex="1" parent="dv9X8ovjfFe85xrB6MPp-3">
          <mxGeometry x="500" y="40" width="120" height="60" as="geometry" />
        </mxCell>
        <mxCell id="dv9X8ovjfFe85xrB6MPp-4" value="Процессы управления" style="text;html=1;align=center;verticalAlign=middle;resizable=0;points=[];autosize=1;strokeColor=none;fillColor=none;" parent="1" vertex="1">
          <mxGeometry x="425" y="38" width="150" height="30" as="geometry" />
        </mxCell>
        <mxCell id="dv9X8ovjfFe85xrB6MPp-5" value="Основные процессы" style="text;html=1;align=center;verticalAlign=middle;resizable=0;points=[];autosize=1;strokeColor=none;fillColor=none;" parent="1" vertex="1">
          <mxGeometry x="430" y="240" width="140" height="30" as="geometry" />
        </mxCell>
        <mxCell id="dv9X8ovjfFe85xrB6MPp-6" value="Обеспечивающие процессы" style="text;html=1;align=center;verticalAlign=middle;resizable=0;points=[];autosize=1;strokeColor=none;fillColor=none;" parent="1" vertex="1">
          <mxGeometry x="410" y="510" width="180" height="30" as="geometry" />
        </mxCell>
        <mxCell id="dv9X8ovjfFe85xrB6MPp-17" value="Бизнес процессы" style="rounded=0;whiteSpace=wrap;html=1;" parent="1" vertex="1">
          <mxGeometry x="1300" y="50" width="120" height="60" as="geometry" />
        </mxCell>
        <mxCell id="dv9X8ovjfFe85xrB6MPp-18" value="процессы управления" style="rounded=0;whiteSpace=wrap;html=1;" parent="1" vertex="1">
          <mxGeometry x="1000" y="150" width="120" height="60" as="geometry" />
        </mxCell>
        <mxCell id="dv9X8ovjfFe85xrB6MPp-19" value="&lt;span style=&quot;text-wrap: nowrap;&quot;&gt;Основные процессы&lt;/span&gt;" style="rounded=0;whiteSpace=wrap;html=1;" parent="1" vertex="1">
          <mxGeometry x="1300" y="150" width="120" height="60" as="geometry" />
        </mxCell>
        <mxCell id="dv9X8ovjfFe85xrB6MPp-20" value="&lt;span style=&quot;text-wrap: nowrap;&quot;&gt;Обеспечивающие процессы&lt;/span&gt;" style="rounded=0;whiteSpace=wrap;html=1;" parent="1" vertex="1">
          <mxGeometry x="1550" y="150" width="210" height="60" as="geometry" />
        </mxCell>
        <mxCell id="lPYYurVJO0OzZrMbPfHH-2" value="" style="endArrow=classic;html=1;rounded=0;exitX=0;exitY=0.5;exitDx=0;exitDy=0;entryX=0.5;entryY=0;entryDx=0;entryDy=0;" parent="1" source="dv9X8ovjfFe85xrB6MPp-17" target="dv9X8ovjfFe85xrB6MPp-18" edge="1">
          <mxGeometry width="50" height="50" relative="1" as="geometry">
            <mxPoint x="1060" y="110" as="sourcePoint" />
            <mxPoint x="1110" y="60" as="targetPoint" />
            <Array as="points">
              <mxPoint x="1060" y="80" />
            </Array>
          </mxGeometry>
        </mxCell>
        <mxCell id="lPYYurVJO0OzZrMbPfHH-3" value="" style="endArrow=classic;html=1;rounded=0;exitX=1;exitY=0.5;exitDx=0;exitDy=0;entryX=0.5;entryY=0;entryDx=0;entryDy=0;" parent="1" source="dv9X8ovjfFe85xrB6MPp-17" target="dv9X8ovjfFe85xrB6MPp-20" edge="1">
          <mxGeometry width="50" height="50" relative="1" as="geometry">
            <mxPoint x="1160" y="350" as="sourcePoint" />
            <mxPoint x="1210" y="300" as="targetPoint" />
            <Array as="points">
              <mxPoint x="1655" y="80" />
            </Array>
          </mxGeometry>
        </mxCell>
        <mxCell id="lPYYurVJO0OzZrMbPfHH-4" value="" style="endArrow=classic;html=1;rounded=0;exitX=0.5;exitY=1;exitDx=0;exitDy=0;entryX=0.5;entryY=0;entryDx=0;entryDy=0;" parent="1" source="dv9X8ovjfFe85xrB6MPp-17" target="dv9X8ovjfFe85xrB6MPp-19" edge="1">
          <mxGeometry width="50" height="50" relative="1" as="geometry">
            <mxPoint x="1320" y="300" as="sourcePoint" />
            <mxPoint x="1370" y="250" as="targetPoint" />
          </mxGeometry>
        </mxCell>
        <mxCell id="lPYYurVJO0OzZrMbPfHH-15" value="" style="endArrow=classic;html=1;rounded=0;exitX=0;exitY=0.5;exitDx=0;exitDy=0;entryX=0;entryY=0.5;entryDx=0;entryDy=0;" parent="1" source="dv9X8ovjfFe85xrB6MPp-18" target="665O-ssnFFVVTjVJuoYP-17" edge="1">
          <mxGeometry width="50" height="50" relative="1" as="geometry">
            <mxPoint x="1190" y="300" as="sourcePoint" />
            <mxPoint x="1000" y="500" as="targetPoint" />
            <Array as="points">
              <mxPoint x="960" y="180" />
              <mxPoint x="960" y="580" />
            </Array>
          </mxGeometry>
        </mxCell>
        <mxCell id="lPYYurVJO0OzZrMbPfHH-18" value="" style="endArrow=classic;html=1;rounded=0;entryX=0;entryY=0.5;entryDx=0;entryDy=0;" parent="1" edge="1">
          <mxGeometry width="50" height="50" relative="1" as="geometry">
            <mxPoint x="960" y="290" as="sourcePoint" />
            <mxPoint x="1000" y="290" as="targetPoint" />
          </mxGeometry>
        </mxCell>
        <mxCell id="lPYYurVJO0OzZrMbPfHH-19" value="" style="endArrow=classic;html=1;rounded=0;entryX=0;entryY=0.5;entryDx=0;entryDy=0;" parent="1" edge="1">
          <mxGeometry width="50" height="50" relative="1" as="geometry">
            <mxPoint x="960" y="400" as="sourcePoint" />
            <mxPoint x="1000" y="400" as="targetPoint" />
          </mxGeometry>
        </mxCell>
        <mxCell id="lPYYurVJO0OzZrMbPfHH-20" value="" style="endArrow=classic;html=1;rounded=0;entryX=0;entryY=0.5;entryDx=0;entryDy=0;" parent="1" edge="1">
          <mxGeometry width="50" height="50" relative="1" as="geometry">
            <mxPoint x="960" y="500" as="sourcePoint" />
            <mxPoint x="1000" y="500" as="targetPoint" />
          </mxGeometry>
        </mxCell>
        <mxCell id="lPYYurVJO0OzZrMbPfHH-22" value="" style="endArrow=classic;html=1;rounded=0;exitX=0;exitY=0.5;exitDx=0;exitDy=0;entryX=0;entryY=0.5;entryDx=0;entryDy=0;" parent="1" edge="1">
          <mxGeometry width="50" height="50" relative="1" as="geometry">
            <mxPoint x="1300" y="175" as="sourcePoint" />
            <mxPoint x="1300" y="470" as="targetPoint" />
            <Array as="points">
              <mxPoint x="1260" y="175" />
              <mxPoint x="1260" y="470" />
            </Array>
          </mxGeometry>
        </mxCell>
        <mxCell id="lPYYurVJO0OzZrMbPfHH-23" value="" style="endArrow=classic;html=1;rounded=0;entryX=0;entryY=0.5;entryDx=0;entryDy=0;" parent="1" edge="1">
          <mxGeometry width="50" height="50" relative="1" as="geometry">
            <mxPoint x="1260" y="285" as="sourcePoint" />
            <mxPoint x="1300" y="285" as="targetPoint" />
          </mxGeometry>
        </mxCell>
        <mxCell id="lPYYurVJO0OzZrMbPfHH-24" value="" style="endArrow=classic;html=1;rounded=0;entryX=0;entryY=0.5;entryDx=0;entryDy=0;" parent="1" edge="1">
          <mxGeometry width="50" height="50" relative="1" as="geometry">
            <mxPoint x="1260" y="395" as="sourcePoint" />
            <mxPoint x="1300" y="395" as="targetPoint" />
          </mxGeometry>
        </mxCell>
        <mxCell id="lPYYurVJO0OzZrMbPfHH-26" value="" style="endArrow=classic;html=1;rounded=0;exitX=0;exitY=0.5;exitDx=0;exitDy=0;entryX=0;entryY=0.5;entryDx=0;entryDy=0;" parent="1" edge="1">
          <mxGeometry width="50" height="50" relative="1" as="geometry">
            <mxPoint x="1550" y="170" as="sourcePoint" />
            <mxPoint x="1595" y="580" as="targetPoint" />
            <Array as="points">
              <mxPoint x="1510" y="170" />
              <mxPoint x="1510" y="580" />
            </Array>
          </mxGeometry>
        </mxCell>
        <mxCell id="lPYYurVJO0OzZrMbPfHH-27" value="" style="endArrow=classic;html=1;rounded=0;" parent="1" edge="1">
          <mxGeometry width="50" height="50" relative="1" as="geometry">
            <mxPoint x="1510" y="280" as="sourcePoint" />
            <mxPoint x="1590" y="280" as="targetPoint" />
          </mxGeometry>
        </mxCell>
        <mxCell id="lPYYurVJO0OzZrMbPfHH-28" value="" style="endArrow=classic;html=1;rounded=0;" parent="1" edge="1">
          <mxGeometry width="50" height="50" relative="1" as="geometry">
            <mxPoint x="1510" y="390" as="sourcePoint" />
            <mxPoint x="1590" y="390" as="targetPoint" />
          </mxGeometry>
        </mxCell>
        <mxCell id="lPYYurVJO0OzZrMbPfHH-29" value="" style="endArrow=classic;html=1;rounded=0;" parent="1" edge="1">
          <mxGeometry width="50" height="50" relative="1" as="geometry">
            <mxPoint x="1510" y="490" as="sourcePoint" />
            <mxPoint x="1590" y="490" as="targetPoint" />
          </mxGeometry>
        </mxCell>
        <mxCell id="lPYYurVJO0OzZrMbPfHH-30" value="Председатель правления" style="rounded=0;whiteSpace=wrap;html=1;" parent="1" vertex="1">
          <mxGeometry x="2300" y="8" width="120" height="60" as="geometry" />
        </mxCell>
        <mxCell id="lPYYurVJO0OzZrMbPfHH-31" value="Исполнительный директор - директор дирекции&amp;nbsp;" style="rounded=0;whiteSpace=wrap;html=1;" parent="1" vertex="1">
          <mxGeometry x="2300" y="110" width="120" height="60" as="geometry" />
        </mxCell>
        <mxCell id="lPYYurVJO0OzZrMbPfHH-32" value="Заместитель директора - руководитель Управления..." style="rounded=0;whiteSpace=wrap;html=1;" parent="1" vertex="1">
          <mxGeometry x="2300" y="190" width="120" height="60" as="geometry" />
        </mxCell>
        <mxCell id="lPYYurVJO0OzZrMbPfHH-33" value="" style="endArrow=classic;html=1;rounded=0;exitX=0.5;exitY=1;exitDx=0;exitDy=0;" parent="1" source="lPYYurVJO0OzZrMbPfHH-30" target="lPYYurVJO0OzZrMbPfHH-31" edge="1">
          <mxGeometry width="50" height="50" relative="1" as="geometry">
            <mxPoint x="2230" y="270" as="sourcePoint" />
            <mxPoint x="2280" y="220" as="targetPoint" />
          </mxGeometry>
        </mxCell>
        <mxCell id="lPYYurVJO0OzZrMbPfHH-34" value="" style="endArrow=classic;html=1;rounded=0;exitX=0.5;exitY=1;exitDx=0;exitDy=0;" parent="1" source="lPYYurVJO0OzZrMbPfHH-31" target="lPYYurVJO0OzZrMbPfHH-32" edge="1">
          <mxGeometry width="50" height="50" relative="1" as="geometry">
            <mxPoint x="2080" y="360" as="sourcePoint" />
            <mxPoint x="2130" y="310" as="targetPoint" />
          </mxGeometry>
        </mxCell>
        <mxCell id="lPYYurVJO0OzZrMbPfHH-35" value="аналитик" style="rounded=0;whiteSpace=wrap;html=1;" parent="1" vertex="1">
          <mxGeometry x="2040" y="320" width="120" height="60" as="geometry" />
        </mxCell>
        <mxCell id="lPYYurVJO0OzZrMbPfHH-37" value="инженер 1 категории" style="rounded=0;whiteSpace=wrap;html=1;" parent="1" vertex="1">
          <mxGeometry x="2160" y="380" width="120" height="60" as="geometry" />
        </mxCell>
        <mxCell id="lPYYurVJO0OzZrMbPfHH-38" value="старший аналитик" style="rounded=0;whiteSpace=wrap;html=1;" parent="1" vertex="1">
          <mxGeometry x="2400" y="380" width="120" height="60" as="geometry" />
        </mxCell>
        <mxCell id="lPYYurVJO0OzZrMbPfHH-39" value="главный аналитик" style="rounded=0;whiteSpace=wrap;html=1;" parent="1" vertex="1">
          <mxGeometry x="2520" y="320" width="120" height="60" as="geometry" />
        </mxCell>
        <mxCell id="lPYYurVJO0OzZrMbPfHH-40" value="инженер" style="rounded=0;whiteSpace=wrap;html=1;" parent="1" vertex="1">
          <mxGeometry x="2040" y="238" width="120" height="60" as="geometry" />
        </mxCell>
        <mxCell id="lPYYurVJO0OzZrMbPfHH-41" value="инженер старший аналитик" style="rounded=0;whiteSpace=wrap;html=1;" parent="1" vertex="1">
          <mxGeometry x="2280" y="440" width="120" height="60" as="geometry" />
        </mxCell>
        <mxCell id="lPYYurVJO0OzZrMbPfHH-42" value="" style="endArrow=classic;html=1;rounded=0;exitX=0.5;exitY=1;exitDx=0;exitDy=0;entryX=0.5;entryY=0;entryDx=0;entryDy=0;" parent="1" source="lPYYurVJO0OzZrMbPfHH-32" target="lPYYurVJO0OzZrMbPfHH-38" edge="1">
          <mxGeometry width="50" height="50" relative="1" as="geometry">
            <mxPoint x="2230" y="330" as="sourcePoint" />
            <mxPoint x="2280" y="280" as="targetPoint" />
          </mxGeometry>
        </mxCell>
        <mxCell id="lPYYurVJO0OzZrMbPfHH-43" value="" style="endArrow=classic;html=1;rounded=0;exitX=0.5;exitY=1;exitDx=0;exitDy=0;entryX=0.5;entryY=0;entryDx=0;entryDy=0;" parent="1" source="lPYYurVJO0OzZrMbPfHH-32" target="lPYYurVJO0OzZrMbPfHH-37" edge="1">
          <mxGeometry width="50" height="50" relative="1" as="geometry">
            <mxPoint x="2080" y="360" as="sourcePoint" />
            <mxPoint x="2130" y="310" as="targetPoint" />
          </mxGeometry>
        </mxCell>
        <mxCell id="lPYYurVJO0OzZrMbPfHH-44" value="" style="endArrow=classic;html=1;rounded=0;exitX=0.5;exitY=1;exitDx=0;exitDy=0;entryX=0.5;entryY=0;entryDx=0;entryDy=0;" parent="1" source="lPYYurVJO0OzZrMbPfHH-32" target="lPYYurVJO0OzZrMbPfHH-35" edge="1">
          <mxGeometry width="50" height="50" relative="1" as="geometry">
            <mxPoint x="2370" y="320" as="sourcePoint" />
            <mxPoint x="2220" y="370" as="targetPoint" />
          </mxGeometry>
        </mxCell>
        <mxCell id="lPYYurVJO0OzZrMbPfHH-45" value="" style="endArrow=classic;html=1;rounded=0;entryX=0.5;entryY=0;entryDx=0;entryDy=0;" parent="1" target="lPYYurVJO0OzZrMbPfHH-41" edge="1">
          <mxGeometry width="50" height="50" relative="1" as="geometry">
            <mxPoint x="2360" y="250" as="sourcePoint" />
            <mxPoint x="2230" y="380" as="targetPoint" />
          </mxGeometry>
        </mxCell>
        <mxCell id="lPYYurVJO0OzZrMbPfHH-46" value="" style="endArrow=classic;html=1;rounded=0;entryX=0.5;entryY=0;entryDx=0;entryDy=0;exitX=0.5;exitY=1;exitDx=0;exitDy=0;" parent="1" source="lPYYurVJO0OzZrMbPfHH-32" target="lPYYurVJO0OzZrMbPfHH-39" edge="1">
          <mxGeometry width="50" height="50" relative="1" as="geometry">
            <mxPoint x="2360" y="310" as="sourcePoint" />
            <mxPoint x="2240" y="390" as="targetPoint" />
          </mxGeometry>
        </mxCell>
        <mxCell id="lPYYurVJO0OzZrMbPfHH-47" value="" style="endArrow=classic;html=1;rounded=0;entryX=1;entryY=0.5;entryDx=0;entryDy=0;exitX=0.5;exitY=1;exitDx=0;exitDy=0;" parent="1" source="lPYYurVJO0OzZrMbPfHH-32" target="lPYYurVJO0OzZrMbPfHH-40" edge="1">
          <mxGeometry width="50" height="50" relative="1" as="geometry">
            <mxPoint x="2370" y="320" as="sourcePoint" />
            <mxPoint x="2590" y="370" as="targetPoint" />
          </mxGeometry>
        </mxCell>
        <mxCell id="665O-ssnFFVVTjVJuoYP-14" value="Управление персоналом" style="rounded=0;whiteSpace=wrap;html=1;" vertex="1" parent="1">
          <mxGeometry x="1000" y="260" width="120" height="60" as="geometry" />
        </mxCell>
        <mxCell id="665O-ssnFFVVTjVJuoYP-15" value="Финансовое управление" style="rounded=0;whiteSpace=wrap;html=1;" vertex="1" parent="1">
          <mxGeometry x="1000" y="370" width="120" height="60" as="geometry" />
        </mxCell>
        <mxCell id="665O-ssnFFVVTjVJuoYP-16" value="Управление тендерами" style="rounded=0;whiteSpace=wrap;html=1;" vertex="1" parent="1">
          <mxGeometry x="1000" y="470" width="120" height="60" as="geometry" />
        </mxCell>
        <mxCell id="665O-ssnFFVVTjVJuoYP-17" value="Стратегическое управление" style="rounded=0;whiteSpace=wrap;html=1;" vertex="1" parent="1">
          <mxGeometry x="1000" y="550" width="120" height="60" as="geometry" />
        </mxCell>
        <mxCell id="665O-ssnFFVVTjVJuoYP-18" value="Розничная продажа страхования" style="rounded=0;whiteSpace=wrap;html=1;" vertex="1" parent="1">
          <mxGeometry x="1300" y="250" width="120" height="60" as="geometry" />
        </mxCell>
        <mxCell id="665O-ssnFFVVTjVJuoYP-19" value="Предоставление ДМС компаниям" style="rounded=0;whiteSpace=wrap;html=1;" vertex="1" parent="1">
          <mxGeometry x="1300" y="360" width="120" height="60" as="geometry" />
        </mxCell>
        <mxCell id="665O-ssnFFVVTjVJuoYP-20" value="процесс андреррайтинга" style="rounded=0;whiteSpace=wrap;html=1;" vertex="1" parent="1">
          <mxGeometry x="1300" y="440" width="120" height="60" as="geometry" />
        </mxCell>
        <mxCell id="665O-ssnFFVVTjVJuoYP-21" value="Обеспечение безопасности&amp;nbsp;" style="rounded=0;whiteSpace=wrap;html=1;" vertex="1" parent="1">
          <mxGeometry x="1595" y="250" width="120" height="60" as="geometry" />
        </mxCell>
        <mxCell id="665O-ssnFFVVTjVJuoYP-22" value="Юридическое обеспечение" style="rounded=0;whiteSpace=wrap;html=1;" vertex="1" parent="1">
          <mxGeometry x="1595" y="460" width="120" height="60" as="geometry" />
        </mxCell>
        <mxCell id="665O-ssnFFVVTjVJuoYP-23" value="IT-обеспечение и связь" style="rounded=0;whiteSpace=wrap;html=1;" vertex="1" parent="1">
          <mxGeometry x="1595" y="550" width="120" height="60" as="geometry" />
        </mxCell>
        <mxCell id="665O-ssnFFVVTjVJuoYP-24" value="Административно-хозяйственное обеспечение&amp;nbsp;" style="rounded=0;whiteSpace=wrap;html=1;" vertex="1" parent="1">
          <mxGeometry x="1590" y="360" width="120" height="60" as="geometry" />
        </mxCell>
        <mxCell id="665O-ssnFFVVTjVJuoYP-25" value="Начальник отдела" style="rounded=0;whiteSpace=wrap;html=1;" vertex="1" parent="1">
          <mxGeometry x="2910" y="190" width="120" height="60" as="geometry" />
        </mxCell>
        <mxCell id="665O-ssnFFVVTjVJuoYP-26" value="" style="endArrow=classic;html=1;rounded=0;exitX=1;exitY=0.5;exitDx=0;exitDy=0;entryX=0.5;entryY=0;entryDx=0;entryDy=0;" edge="1" parent="1" source="lPYYurVJO0OzZrMbPfHH-31" target="665O-ssnFFVVTjVJuoYP-25">
          <mxGeometry width="50" height="50" relative="1" as="geometry">
            <mxPoint x="2560" y="110" as="sourcePoint" />
            <mxPoint x="2610" y="60" as="targetPoint" />
            <Array as="points">
              <mxPoint x="2620" y="140" />
              <mxPoint x="2970" y="140" />
            </Array>
          </mxGeometry>
        </mxCell>
        <mxCell id="665O-ssnFFVVTjVJuoYP-27" value="эксперт" style="rounded=0;whiteSpace=wrap;html=1;" vertex="1" parent="1">
          <mxGeometry x="2790" y="287" width="120" height="60" as="geometry" />
        </mxCell>
        <mxCell id="665O-ssnFFVVTjVJuoYP-28" value="ведущий специалист по охране труда" style="rounded=0;whiteSpace=wrap;html=1;" vertex="1" parent="1">
          <mxGeometry x="2860" y="347" width="120" height="60" as="geometry" />
        </mxCell>
        <mxCell id="665O-ssnFFVVTjVJuoYP-29" value="менеджер проектов" style="rounded=0;whiteSpace=wrap;html=1;" vertex="1" parent="1">
          <mxGeometry x="2980" y="347" width="120" height="60" as="geometry" />
        </mxCell>
        <mxCell id="665O-ssnFFVVTjVJuoYP-30" value="Руководитель группы" style="rounded=0;whiteSpace=wrap;html=1;" vertex="1" parent="1">
          <mxGeometry x="2730" y="227" width="120" height="60" as="geometry" />
        </mxCell>
        <mxCell id="665O-ssnFFVVTjVJuoYP-31" value="рук напр по охране труда" style="rounded=0;whiteSpace=wrap;html=1;" vertex="1" parent="1">
          <mxGeometry x="3030" y="287" width="120" height="60" as="geometry" />
        </mxCell>
        <mxCell id="665O-ssnFFVVTjVJuoYP-32" value="главный специалист по воинскому учету" style="rounded=0;whiteSpace=wrap;html=1;" vertex="1" parent="1">
          <mxGeometry x="3090" y="227" width="120" height="60" as="geometry" />
        </mxCell>
        <mxCell id="665O-ssnFFVVTjVJuoYP-33" value="" style="endArrow=classic;html=1;rounded=0;exitX=0;exitY=0.5;exitDx=0;exitDy=0;entryX=1;entryY=0.5;entryDx=0;entryDy=0;" edge="1" parent="1" source="665O-ssnFFVVTjVJuoYP-25" target="665O-ssnFFVVTjVJuoYP-30">
          <mxGeometry width="50" height="50" relative="1" as="geometry">
            <mxPoint x="2690" y="382" as="sourcePoint" />
            <mxPoint x="2740" y="332" as="targetPoint" />
          </mxGeometry>
        </mxCell>
        <mxCell id="665O-ssnFFVVTjVJuoYP-34" value="" style="endArrow=classic;html=1;rounded=0;exitX=0;exitY=0.5;exitDx=0;exitDy=0;entryX=0.75;entryY=0;entryDx=0;entryDy=0;" edge="1" parent="1" target="665O-ssnFFVVTjVJuoYP-27">
          <mxGeometry width="50" height="50" relative="1" as="geometry">
            <mxPoint x="2910" y="222" as="sourcePoint" />
            <mxPoint x="2870" y="279" as="targetPoint" />
          </mxGeometry>
        </mxCell>
        <mxCell id="665O-ssnFFVVTjVJuoYP-35" value="" style="endArrow=classic;html=1;rounded=0;exitX=0.5;exitY=1;exitDx=0;exitDy=0;entryX=0.75;entryY=0;entryDx=0;entryDy=0;" edge="1" parent="1" source="665O-ssnFFVVTjVJuoYP-25" target="665O-ssnFFVVTjVJuoYP-28">
          <mxGeometry width="50" height="50" relative="1" as="geometry">
            <mxPoint x="2930" y="240" as="sourcePoint" />
            <mxPoint x="2870" y="277" as="targetPoint" />
          </mxGeometry>
        </mxCell>
        <mxCell id="665O-ssnFFVVTjVJuoYP-36" value="" style="endArrow=classic;html=1;rounded=0;exitX=0.5;exitY=1;exitDx=0;exitDy=0;entryX=0.25;entryY=0;entryDx=0;entryDy=0;" edge="1" parent="1" source="665O-ssnFFVVTjVJuoYP-25" target="665O-ssnFFVVTjVJuoYP-29">
          <mxGeometry width="50" height="50" relative="1" as="geometry">
            <mxPoint x="2980" y="260" as="sourcePoint" />
            <mxPoint x="2960" y="357" as="targetPoint" />
          </mxGeometry>
        </mxCell>
        <mxCell id="665O-ssnFFVVTjVJuoYP-37" value="" style="endArrow=classic;html=1;rounded=0;exitX=1;exitY=0.5;exitDx=0;exitDy=0;entryX=0;entryY=0.25;entryDx=0;entryDy=0;" edge="1" parent="1" source="665O-ssnFFVVTjVJuoYP-25" target="665O-ssnFFVVTjVJuoYP-32">
          <mxGeometry width="50" height="50" relative="1" as="geometry">
            <mxPoint x="2990" y="270" as="sourcePoint" />
            <mxPoint x="2970" y="367" as="targetPoint" />
          </mxGeometry>
        </mxCell>
        <mxCell id="665O-ssnFFVVTjVJuoYP-38" value="" style="endArrow=classic;html=1;rounded=0;exitX=1;exitY=0.5;exitDx=0;exitDy=0;entryX=0.25;entryY=0;entryDx=0;entryDy=0;" edge="1" parent="1" source="665O-ssnFFVVTjVJuoYP-25" target="665O-ssnFFVVTjVJuoYP-31">
          <mxGeometry width="50" height="50" relative="1" as="geometry">
            <mxPoint x="3040" y="230" as="sourcePoint" />
            <mxPoint x="3100" y="252" as="targetPoint" />
          </mxGeometry>
        </mxCell>
        <mxCell id="665O-ssnFFVVTjVJuoYP-40" value="Начальник отдела" style="rounded=0;whiteSpace=wrap;html=1;" vertex="1" parent="1">
          <mxGeometry x="2670" y="470" width="120" height="60" as="geometry" />
        </mxCell>
        <mxCell id="665O-ssnFFVVTjVJuoYP-41" value="специалист" style="rounded=0;whiteSpace=wrap;html=1;" vertex="1" parent="1">
          <mxGeometry x="2550" y="590" width="120" height="60" as="geometry" />
        </mxCell>
        <mxCell id="665O-ssnFFVVTjVJuoYP-42" value="ведущий специалст" style="rounded=0;whiteSpace=wrap;html=1;" vertex="1" parent="1">
          <mxGeometry x="2670" y="627" width="120" height="60" as="geometry" />
        </mxCell>
        <mxCell id="665O-ssnFFVVTjVJuoYP-43" value="руководитель направления" style="rounded=0;whiteSpace=wrap;html=1;" vertex="1" parent="1">
          <mxGeometry x="2790" y="585" width="120" height="60" as="geometry" />
        </mxCell>
        <mxCell id="665O-ssnFFVVTjVJuoYP-44" value="главный специалист" style="rounded=0;whiteSpace=wrap;html=1;" vertex="1" parent="1">
          <mxGeometry x="2500" y="530" width="120" height="60" as="geometry" />
        </mxCell>
        <mxCell id="665O-ssnFFVVTjVJuoYP-45" value="руководитель группы" style="rounded=0;whiteSpace=wrap;html=1;" vertex="1" parent="1">
          <mxGeometry x="2835" y="525" width="120" height="60" as="geometry" />
        </mxCell>
        <mxCell id="665O-ssnFFVVTjVJuoYP-47" value="" style="endArrow=classic;html=1;rounded=0;exitX=0;exitY=0.5;exitDx=0;exitDy=0;entryX=0.75;entryY=0;entryDx=0;entryDy=0;" edge="1" parent="1" source="665O-ssnFFVVTjVJuoYP-40" target="665O-ssnFFVVTjVJuoYP-44">
          <mxGeometry width="50" height="50" relative="1" as="geometry">
            <mxPoint x="2441" y="662" as="sourcePoint" />
            <mxPoint x="2491" y="612" as="targetPoint" />
          </mxGeometry>
        </mxCell>
        <mxCell id="665O-ssnFFVVTjVJuoYP-48" value="" style="endArrow=classic;html=1;rounded=0;exitX=0.5;exitY=1;exitDx=0;exitDy=0;entryX=0.75;entryY=0;entryDx=0;entryDy=0;" edge="1" parent="1" target="665O-ssnFFVVTjVJuoYP-41" source="665O-ssnFFVVTjVJuoYP-40">
          <mxGeometry width="50" height="50" relative="1" as="geometry">
            <mxPoint x="2661" y="502" as="sourcePoint" />
            <mxPoint x="2621" y="559" as="targetPoint" />
          </mxGeometry>
        </mxCell>
        <mxCell id="665O-ssnFFVVTjVJuoYP-49" value="" style="endArrow=classic;html=1;rounded=0;exitX=0.5;exitY=1;exitDx=0;exitDy=0;entryX=0.5;entryY=0;entryDx=0;entryDy=0;" edge="1" parent="1" source="665O-ssnFFVVTjVJuoYP-40" target="665O-ssnFFVVTjVJuoYP-42">
          <mxGeometry width="50" height="50" relative="1" as="geometry">
            <mxPoint x="2681" y="520" as="sourcePoint" />
            <mxPoint x="2621" y="557" as="targetPoint" />
          </mxGeometry>
        </mxCell>
        <mxCell id="665O-ssnFFVVTjVJuoYP-50" value="" style="endArrow=classic;html=1;rounded=0;exitX=0.5;exitY=1;exitDx=0;exitDy=0;entryX=0.25;entryY=0;entryDx=0;entryDy=0;" edge="1" parent="1" source="665O-ssnFFVVTjVJuoYP-40" target="665O-ssnFFVVTjVJuoYP-43">
          <mxGeometry width="50" height="50" relative="1" as="geometry">
            <mxPoint x="2731" y="540" as="sourcePoint" />
            <mxPoint x="2711" y="637" as="targetPoint" />
          </mxGeometry>
        </mxCell>
        <mxCell id="665O-ssnFFVVTjVJuoYP-52" value="" style="endArrow=classic;html=1;rounded=0;exitX=1;exitY=0.5;exitDx=0;exitDy=0;entryX=0.25;entryY=0;entryDx=0;entryDy=0;" edge="1" parent="1" source="665O-ssnFFVVTjVJuoYP-40" target="665O-ssnFFVVTjVJuoYP-45">
          <mxGeometry width="50" height="50" relative="1" as="geometry">
            <mxPoint x="2791" y="510" as="sourcePoint" />
            <mxPoint x="2851" y="532" as="targetPoint" />
          </mxGeometry>
        </mxCell>
        <mxCell id="665O-ssnFFVVTjVJuoYP-53" value="" style="endArrow=classic;html=1;rounded=0;exitX=1;exitY=0.5;exitDx=0;exitDy=0;entryX=0.5;entryY=0;entryDx=0;entryDy=0;" edge="1" parent="1" source="lPYYurVJO0OzZrMbPfHH-31" target="665O-ssnFFVVTjVJuoYP-40">
          <mxGeometry width="50" height="50" relative="1" as="geometry">
            <mxPoint x="2580" y="230" as="sourcePoint" />
            <mxPoint x="2630" y="180" as="targetPoint" />
            <Array as="points">
              <mxPoint x="2720" y="140" />
            </Array>
          </mxGeometry>
        </mxCell>
      </root>
    </mxGraphModel>
  </diagram>
</mxfile>
